HIERARCHY
ROOT Hips
{
	OFFSET	0.00	0.00	0.00
	CHANNELS 6 Xposition Yposition Zposition Zrotation Xrotation Yrotation
	JOINT LeftUpLeg
	{
		OFFSET	 0.126116	-0.014019	-0.065224
		CHANNELS 3 Zrotation Xrotation Yrotation
		JOINT LeftLeg
		{
			OFFSET	 0.000000	 0.000000	 0.569914
			CHANNELS 3 Zrotation Xrotation Yrotation
			JOINT LeftFoot
			{
				OFFSET	 0.000000	 0.000000	 0.544423
				CHANNELS 3 Zrotation Xrotation Yrotation
				JOINT LeftToeBase
				{
					OFFSET	 0.000000	 0.000000	 0.207117
					CHANNELS 3 Zrotation Xrotation Yrotation
					End Site
					{
						OFFSET	 0.000000	 0.000000	 0.207117
					}
				}
			}
		}
	}
	JOINT RightUpLeg
	{
		OFFSET	-0.124023	-0.008373	-0.065224
		CHANNELS 3 Zrotation Xrotation Yrotation
		JOINT RightLeg
		{
			OFFSET	 0.000000	 0.000000	 0.570047
			CHANNELS 3 Zrotation Xrotation Yrotation
			JOINT RightFoot
			{
				OFFSET	 0.000000	 0.000000	 0.544354
				CHANNELS 3 Zrotation Xrotation Yrotation
				JOINT RightToeBase
				{
					OFFSET	 0.000000	 0.000000	 0.207540
					CHANNELS 3 Zrotation Xrotation Yrotation
					End Site
					{
						OFFSET	 0.000000	 0.000000	 0.207540
					}
				}
			}
		}
	}
	JOINT Spine
	{
		OFFSET	 0.000184	-0.007763	 0.117403
		CHANNELS 3 Zrotation Xrotation Yrotation
		JOINT Spine1
		{
			OFFSET	 0.000000	 0.000000	 0.137269
			CHANNELS 3 Zrotation Xrotation Yrotation
			JOINT Spine2
			{
				OFFSET	 0.000000	 0.000000	 0.156879
				CHANNELS 3 Zrotation Xrotation Yrotation
				JOINT LeftShoulder
				{
					OFFSET	 0.080501	-0.002496	 0.160144
					CHANNELS 3 Zrotation Xrotation Yrotation
					JOINT LeftArm
					{
						OFFSET	 0.000000	 0.000000	 0.164363
						CHANNELS 3 Zrotation Xrotation Yrotation
						JOINT LeftForeArm
						{
							OFFSET	 0.000000	 0.000000	 0.364576
							CHANNELS 3 Zrotation Xrotation Yrotation
							JOINT LeftHand
							{
								OFFSET	 0.000000	 0.000000	 0.360812
								CHANNELS 3 Zrotation Xrotation Yrotation
								JOINT LeftHandIndex1
								{
									OFFSET	 0.000000	 0.000000	 0.086006
									CHANNELS 3 Zrotation Xrotation Yrotation
									JOINT LeftHandIndex2
									{
										OFFSET	 0.000000	 0.000000	 0.047236
										CHANNELS 3 Zrotation Xrotation Yrotation
										JOINT LeftHandIndex3
										{
											OFFSET	-0.004284	-0.000551	 0.038166
											CHANNELS 3 Zrotation Xrotation Yrotation
											End Site
											{
												OFFSET	-0.004284	-0.000551	 0.038166
											}
										}
									}
								}
							}
						}
					}
				}
				JOINT Neck
				{
					OFFSET	 0.000000	 0.000000	 0.176489
					CHANNELS 3 Zrotation Xrotation Yrotation
					JOINT Head
					{
						OFFSET	 0.000000	-0.001747	 0.077940
						CHANNELS 3 Zrotation Xrotation Yrotation
						End Site
						{
							OFFSET	 0.000000	-0.001747	 0.077940
						}
					}
				}
				JOINT RightShoulder
				{
					OFFSET	-0.080363	 0.000306	 0.159706
					CHANNELS 3 Zrotation Xrotation Yrotation
					JOINT RightArm
					{
						OFFSET	 0.000000	 0.000000	 0.164196
						CHANNELS 3 Zrotation Xrotation Yrotation
						JOINT RightForeArm
						{
							OFFSET	 0.000000	 0.000000	 0.365611
							CHANNELS 3 Zrotation Xrotation Yrotation
							JOINT RightHand
							{
								OFFSET	 0.000000	 0.000000	 0.360648
								CHANNELS 3 Zrotation Xrotation Yrotation
								JOINT RightHandIndex1
								{
									OFFSET	 0.000000	 0.000000	 0.069977
									CHANNELS 3 Zrotation Xrotation Yrotation
									JOINT RightHandIndex2
									{
										OFFSET	 0.000000	 0.000000	 0.052305
										CHANNELS 3 Zrotation Xrotation Yrotation
										JOINT RightHandIndex3
										{
											OFFSET	 0.009002	-0.000782	 0.042196
											CHANNELS 3 Zrotation Xrotation Yrotation
											End Site
											{
												OFFSET	 0.009002	-0.000782	 0.042196
											}
										}
									}
								}
							}
						}
					}
				}
			}
		}
	}
}
MOTION
Frames:    10
Frame Time: 0.03333334
-0.037900	 0.261158	 1.004359	 3.113454	 33.397080	-8.164277	 44.963170	-82.269800	-138.488000	 7.387847	-73.773830	 7.497120	 46.204260	 83.272590	-49.217140	-2.385832	 28.452790	-0.000001	 76.791950	-80.763050	-104.616500	-20.663480	-77.694280	-15.177300	 15.442050	 83.899340	 0.881442	 2.384659	 28.388700	-0.000001	-9.410543	 15.217720	 0.481625	-1.799631	 21.862110	 0.983103	-5.230135	-0.653643	 4.051691	-99.112770	 68.195530	 156.953000	 3.965074	-7.919372	-52.163660	-23.841630	 2.552731	-8.590463	-36.300190	-25.837220	-23.626160	-2.027600	 6.559038	 9.033609	-5.188889	 0.308190	 3.541030	-5.234859	 0.342567	 0.430617	 0.230953	 16.922500	-5.691431	-4.221958	-25.972030	-2.845027	 97.408040	 64.623760	-159.313200	-8.294137	 5.408375	 61.385160	 7.134038	 7.874300	 28.010500	 19.842470	-25.555320	 19.057140	 1.803333	 3.979147	-15.098590	 4.898592	 3.004813	-9.310344	 5.224449	 0.395017	 2.014677
-0.036321	 0.259104	 1.017662	 2.856951	 32.247040	-7.558922	 33.747410	-80.501230	-149.760500	 6.361778	-72.005430	 6.449630	 41.710420	 82.977500	-44.602830	-2.385832	 28.452790	-0.000001	 60.207150	-80.439540	-120.900700	-19.079140	-75.876680	-13.527420	 14.458220	 83.520800	 1.808154	 2.384659	 28.388700	-0.000001	-8.549807	 15.085830	 0.334588	-1.470962	 22.463710	 0.574597	-5.286139	-1.862708	 3.676189	-98.652420	 68.602480	 157.765700	 4.254309	-5.506552	-53.271500	-23.454840	 2.544970	-8.583611	-36.634940	-25.279490	-24.103920	-2.027600	 6.559038	 9.033609	-5.188889	 0.308190	 3.541030	-5.234859	 0.342567	 0.430617	-0.350995	 12.517930	-4.417824	-4.472992	-21.590380	-3.133449	 97.155390	 64.259690	-160.296800	-9.259723	 5.326988	 60.832970	 7.394369	 8.577006	 29.872840	 19.534430	-24.475870	 20.099580	 1.803333	 3.979147	-15.098590	 4.898592	 3.004813	-9.310344	 5.224449	 0.395017	 2.014677
-0.034526	 0.257491	 1.030671	 2.632657	 31.129370	-7.010907	 26.476570	-78.522330	-157.056300	 5.642074	-70.200210	 5.702876	 37.451180	 82.593240	-40.288090	-2.385832	 28.452790	-0.000001	 46.192850	-79.398060	-134.603100	-17.894770	-74.033330	-12.271870	 13.657070	 83.119380	 2.543070	 2.384659	 28.388700	-0.000001	-7.832467	 14.967690	 0.223837	-1.205412	 22.876820	 0.246140	-5.365999	-2.971601	 3.319140	-98.043060	 69.377710	 158.514100	 4.864891	-2.841959	-54.282900	-23.038890	 2.528539	-8.562901	-36.987170	-24.831700	-24.837250	-2.027600	 6.559038	 9.033609	-5.188889	 0.308190	 3.541030	-5.234859	 0.342567	 0.430617	-0.742752	 8.063667	-3.422527	-4.647384	-17.213390	-3.324995	 96.885070	 64.166160	-161.071000	-10.296230	 5.712176	 60.040160	 7.221745	 9.126654	 31.774360	 19.015590	-23.433200	 20.736130	 1.803333	 3.979147	-15.098590	 4.898592	 3.004813	-9.310344	 5.224449	 0.395017	 2.014677
-0.032003	 0.255444	 1.047010	 2.343394	 29.678440	-6.306790	 20.355090	-75.784940	-163.254700	 4.997505	-67.877820	 5.017597	 32.932480	 82.075580	-35.717090	-2.385833	 28.452760	 0.000004	 32.633130	-77.326350	-147.795400	-16.820430	-71.614290	-11.093410	 12.945010	 82.617030	 3.215101	 2.384659	 28.388700	-0.000001	-7.011816	 14.815220	 0.095429	-0.922226	 23.242780	-0.089737	-5.466199	-4.344440	 2.879790	-97.015540	 70.918080	 159.404900	 5.908714	 0.934026	-55.630600	-22.464490	 2.501401	-8.526171	-37.463970	-24.365060	-25.976680	-2.027600	 6.559038	 9.033609	-5.188889	 0.308190	 3.541030	-5.234859	 0.342567	 0.430617	-1.061574	 2.252704	-2.400212	-4.804883	-11.566340	-3.466488	 96.442090	 64.668950	-161.797400	-11.665860	 7.139523	 59.031390	 6.545534	 9.606867	 34.236350	 18.343290	-22.385020	 21.221440	 1.803333	 3.979147	-15.098590	 4.898592	 3.004813	-9.310344	 5.224449	 0.395017	 2.014677
-0.029598	 0.253458	 1.061342	 2.116829	 28.351260	-5.625677	 16.534360	-73.232910	-167.190600	 4.782362	-65.800800	 4.744238	 29.757700	 81.604360	-32.577590	-2.385833	 28.452760	 0.000004	 23.793440	-75.031360	-156.319500	-16.241990	-69.375200	-10.400590	 12.501500	 82.188190	 3.733951	 2.384659	 28.388700	-0.000001	-6.264146	 14.731020	-0.056732	-0.630515	 23.511060	-0.457509	-5.531928	-5.545151	 2.580743	-95.606490	 73.204620	 160.053000	 6.935530	 4.896987	-57.391390	-21.892390	 2.469044	-8.480376	-37.966370	-24.120190	-26.910470	-2.027600	 6.559038	 9.033609	-5.188889	 0.308190	 3.541030	-5.234859	 0.342567	 0.430617	-1.277379	-2.941229	-2.187271	-4.785058	-6.556420	-3.057786	 95.707230	 66.076300	-162.546000	-12.896590	 9.462949	 58.988530	 5.755750	 9.853768	 36.313580	 18.032080	-22.137500	 21.668740	 1.803333	 3.979147	-15.098590	 4.898592	 3.004813	-9.310344	 5.224449	 0.395017	 2.014677
-0.026174	 0.249976	 1.079212	 1.990587	 26.734360	-4.789496	 13.014020	-69.964320	-170.781400	 4.713675	-63.139130	 4.579196	 26.345780	 80.884560	-29.237170	-2.385833	 28.452750	 0.000004	 16.157710	-71.751940	-163.550600	-14.406570	-66.559680	-8.507763	 12.104530	 81.728970	 3.767051	 2.384659	 28.388700	-0.000001	-5.402601	 14.546920	-0.311338	-0.334473	 23.751660	-0.946384	-5.601805	-6.992899	 2.300567	-93.833090	 75.833550	 160.764100	 8.608495	 9.152719	-59.526170	-21.135110	 2.421836	-8.411294	-38.092240	-23.849500	-27.970790	-2.027600	 6.559038	 9.033609	-5.188889	 0.308190	 3.541030	-5.234859	 0.342567	 0.430617	-1.521132	-9.506419	-2.410719	-4.772799	-0.328330	-2.309770	 94.817620	 67.826050	-163.432200	-14.659220	 12.100620	 58.923740	 4.788811	 10.183780	 39.150600	 17.597370	-21.974940	 21.912270	 1.803333	 3.979147	-15.098590	 4.898592	 3.004813	-9.310344	 5.224449	 0.395017	 2.014677
-0.022199	 0.244440	 1.099169	 2.166337	 25.167480	-4.037484	 10.405060	-66.343830	-173.317600	 4.617230	-59.980760	 4.368721	 23.574230	 79.949580	-26.474280	-2.385833	 28.452750	 0.000004	 10.628930	-67.932720	-168.505800	-12.282660	-63.294620	-6.381788	 12.198570	 81.073880	 3.102996	 2.384659	 28.388700	-0.000001	-4.402675	 13.927700	-0.695542	-0.136488	 23.742050	-1.391995	-5.649024	-8.487755	 1.863644	-93.348660	 76.366780	 162.019400	 10.500660	 11.885090	-60.698650	-20.255150	 2.358529	-8.315430	-37.323280	-23.363470	-29.000960	-2.027600	 6.559038	 9.033609	-5.188889	 0.308190	 3.541030	-5.234859	 0.342567	 0.430617	-1.668309	-13.614060	-1.942017	-4.818159	 3.622757	-2.199209	 94.111260	 69.095410	-164.320100	-16.590400	 14.641650	 57.924400	 3.651433	 10.518400	 42.626790	 16.896700	-21.676290	 21.924710	 1.803333	 3.979147	-15.098590	 4.898592	 3.004813	-9.310344	 5.224449	 0.395017	 2.014677
-0.018801	 0.236984	 1.120041	 2.514557	 23.804230	-3.493748	 8.563236	-62.588060	-174.971600	 4.462975	-56.394650	 4.067010	 20.650920	 78.851750	-23.535970	-2.385833	 28.452750	 0.000004	 6.712740	-63.974670	-171.730400	-10.358360	-59.673340	-4.502029	 11.696660	 80.127880	 2.927328	 2.384659	 28.388700	-0.000001	-3.262876	 12.810010	-0.967595	 0.084052	 23.464480	-1.738164	-5.695765	-9.927850	 1.310089	-94.028600	 74.934270	 163.619600	 12.335160	 13.061200	-60.831630	-19.298750	 2.283524	-8.198199	-35.746920	-22.700580	-29.643840	-2.027600	 6.559038	 9.033609	-5.188889	 0.308190	 3.541030	-5.234859	 0.342567	 0.430617	-1.694431	-14.788030	-0.997460	-4.815300	 4.895091	-2.569248	 93.823160	 69.150770	-165.310000	-18.261260	 16.394090	 55.563340	 2.398535	 10.826160	 46.661130	 15.868870	-21.094840	 21.753440	 1.803333	 3.979147	-15.098590	 4.898592	 3.004813	-9.310344	 5.224449	 0.395017	 2.014677
-0.016798	 0.228902	 1.139529	 2.716420	 22.692570	-3.092094	 7.141130	-59.033860	-176.227700	 4.264515	-52.797690	 3.731520	 17.100360	 77.679970	-20.032040	-2.385833	 28.452750	 0.000004	 3.937088	-60.287480	-173.892500	-8.865320	-56.035160	-3.085855	 10.054310	 78.999860	 3.826460	 2.384659	 28.388700	-0.000001	-2.199657	 11.548220	-0.884577	 0.499868	 23.075040	-2.013265	-5.802530	-11.181010	 0.900459	-94.386690	 73.850460	 164.813900	 14.136980	 13.901440	-60.954880	-18.359830	 2.206117	-8.073939	-33.991510	-22.177730	-29.417310	-2.027600	 6.559038	 9.033609	-5.188889	 0.308190	 3.541030	-5.234859	 0.342567	 0.430617	-1.796945	-15.241340	-0.979913	-4.745275	 5.523936	-2.330761	 93.988790	 67.483540	-166.498000	-19.412570	 16.476410	 52.384060	 1.201550	 11.115370	 50.898670	 14.609150	-20.221880	 21.510930	 1.803333	 3.979147	-15.098590	 4.898592	 3.004813	-9.310344	 5.224449	 0.395017	 2.014677
-0.015151	 0.219204	 1.159968	 2.960533	 21.383610	-2.488671	 5.717194	-54.996790	-177.606300	 4.013421	-48.922220	 3.342259	 14.191070	 76.435940	-17.052390	-2.385833	 28.452750	 0.000004	 1.327538	-55.936510	-175.932600	-7.434933	-51.906690	-1.801554	 8.491276	 77.931430	 4.572171	 2.384659	 28.388700	-0.000001	-0.939968	 10.104630	-0.845089	 0.978793	 22.411760	-2.328867	-5.934817	-12.350150	 0.395541	-94.723810	 72.419640	 166.186200	 15.926430	 14.453550	-61.113470	-17.224340	 2.105640	-7.906995	-31.811620	-21.597810	-28.265800	-2.027600	 6.559038	 9.033609	-5.188889	 0.308190	 3.541030	-5.234859	 0.342567	 0.430617	-1.841323	-15.169680	-0.770333	-4.700430	 5.827321	-2.254146	 93.983220	 65.631530	-167.937900	-20.633930	 16.494910	 49.725570	-0.005515	 11.105810	 54.742660	 13.158440	-19.271150	 20.947130	 1.803333	 3.979147	-15.098590	 4.898592	 3.004813	-9.310344	 5.224449	 0.395017	 2.014677
